<svg xmlns="http://www.w3.org/2000/svg" version="1.1" xmlns:xlink="http://www.w3.org/1999/xlink" xmlns:svgjs="http://svgjs.dev/svgjs" width="1920" height="1080" preserveAspectRatio="none" viewBox="0 0 1920 1080"><g mask="url(&quot;#SvgjsMask1026&quot;)" fill="none"><path d="M1350 55.86C1303.41 55.86 1272.38 169.02 1272.38 270C1272.38 326.17 1306.29 370.16 1350 370.16C1402.6 370.16 1465 330.59 1465 270C1465 173.44 1399.72 55.86 1350 55.86" stroke="rgba(244, 191, 150, 1)" stroke-width="2"></path><path d="M1857.6 0C1878.97 2.43 1872.76 30.76 1890 30.76C1910.28 30.76 1907.28 2.89 1932.63 0C2042.28 -12.49 2108.03 -61.71 2160 0C2221.71 73.29 2160 135 2160 270C2160 405 2160 405 2160 540C2160 649.69 2179.73 658.09 2160 759.38C2153.43 793.09 2107.4 780.23 2107.4 810C2107.4 857.47 2149.16 858.23 2160 913.85C2175.46 993.23 2196.4 1033.33 2160 1080C2131.6 1116.4 2090.51 1097.76 2030.4 1080C1955.51 1057.87 1955.4 1000.23 1890 1000.23C1842.91 1000.23 1857.45 1064.63 1805.42 1080C1722.45 1104.51 1712.71 1080 1620 1080C1485 1080 1485 1080 1350 1080C1215 1080 1215 1080 1080 1080C945 1080 945 1080 810 1080C683.71 1080 680.42 1087.94 557.42 1080C545.42 1079.23 550.36 1062.58 540 1062.58C521.65 1062.58 521.53 1078.61 500 1080C386.53 1087.32 385 1080 270 1080C135 1080 88.66 1126.34 0 1080C-46.34 1055.77 -16.11 1005.59 0 938.86C16.48 870.59 23.55 868.56 65.17 810C158.55 678.63 142.04 609.86 270 559.01C379.45 515.52 419.68 560.56 540 621.33C668.16 686.06 655.04 713.95 766.96 810C790.04 829.81 781.67 853.04 810 853.04C926.94 853.04 1049.78 876.21 1057.5 810C1068.03 719.69 947.6 677.88 846.49 540C823.85 509.13 843.75 483.27 810 472.5C690.5 434.36 673.02 431.59 540 442.17C403.02 453.06 407.06 503.76 270 515.45C137.06 526.79 74.83 556.24 0 488.22C-60.17 433.52 0 379.11 0 270C0 135 -67.5 67.5 0 0C67.5 -67.5 135 0 270 0C405 0 405 0 540 0C675 0 675 0 810 0C945 0 945 0 1080 0C1215 0 1215 0 1350 0C1485 0 1485 0 1620 0C1738.8 0 1743.97 -12.95 1857.6 0" stroke="rgba(244, 191, 150, 1)" stroke-width="2"></path><path d="M1620 742.5C1601.74 742.5 1582.03 779.01 1582.03 810C1582.03 831.17 1601.49 846.82 1620 846.82C1637.59 846.82 1654.23 830.82 1654.23 810C1654.23 778.66 1637.84 742.5 1620 742.5" stroke="rgba(244, 191, 150, 1)" stroke-width="2"></path><path d="M249.23 0C268.95 2.72 258.92 37.24 270 37.24C281.58 37.24 273.79 2.86 294.55 0C408.79 -15.76 417.27 0 540 0C675 0 675 0 810 0C945 0 945 0 1080 0C1175.54 0 1249.29 -54.47 1271.08 0C1303.29 80.53 1167.62 146.29 1188 270C1207.08 385.81 1258.78 479.03 1350 479.03C1459.78 479.03 1568.38 391.13 1590 270C1611.13 151.61 1426.08 84.74 1435.5 0C1441.08 -50.26 1527.75 0 1620 0C1693.8 0 1704.62 -27.11 1767.6 0C1839.62 30.99 1824.89 116.2 1890 116.2C1966.61 116.2 1963.87 37.52 2051.05 0C2098.87 -20.58 2144.34 -38.81 2160 0C2198.81 96.19 2160 135 2160 270C2160 405 2160 405 2160 540C2160 607.5 2188.72 619.72 2160 675C2118.59 754.72 2091.34 744.1 2019.74 810C1956.34 868.36 1956 923.52 1890 923.52C1820.78 923.52 1801.6 881.38 1749.3 810C1666.6 697.12 1687.4 555 1620 555C1551.03 555 1476.56 692.91 1476.56 810C1476.56 889.96 1552.63 875.6 1620 949.09C1676.4 1010.6 1724.1 1039.66 1724.1 1080C1724.1 1105.11 1672.05 1080 1620 1080C1536.93 1080 1524.84 1108.39 1453.85 1080C1389.84 1054.39 1400.23 972 1350 972C1302.54 972 1318.19 1056.11 1258.47 1080C1183.19 1110.11 1169.24 1080 1080 1080C945 1080 945 1080 810 1080C738.14 1080 726.48 1108.15 666.29 1080C591.48 1045.01 615.04 956.09 540 953.71C416.9 949.81 370.3 1103.73 270 1067.44C171.68 1031.87 142.76 931.52 142.76 810C142.76 724.84 185.95 676.79 270 654.08C384.57 623.12 416.21 654.29 540 702.65C615.77 732.25 607.38 753.23 669.13 810C742.38 877.34 723.27 929.16 810 950.87C928.7 980.59 956.56 957.45 1080 912.86C1151.56 887.01 1200 861.43 1200 810C1200 758.57 1134.9 763.65 1080 707.14C1003.75 628.65 998.42 630.71 937.7 540C863.42 429.02 908.6 352.26 810 303.75C709.75 254.43 674.69 322.16 540 344.35C404.69 366.65 406.06 379.78 270 392.73C136.06 405.48 92.11 437.62 0 395.75C-42.89 376.25 0 332.88 0 270C0 135 -64.8 70.2 0 0C59.82 -64.8 133.95 -15.9 249.23 0" stroke="rgba(244, 191, 150, 1)" stroke-width="2"></path><path d="M119.42 0C216.8 97.38 301.76 189.34 270 270C242.05 340.98 120.28 303.29 0 303.29C-14.72 303.29 0 286.64 0 270C0 135 -41.4 93.6 0 0C18.31 -41.4 81.8 -37.62 119.42 0" stroke="rgba(244, 191, 150, 1)" stroke-width="2"></path><path d="M540 192.86C466.5 185.71 447.95 67.4 447.95 0C447.95 -29.03 493.97 0 540 0C675 0 675 0 810 0C945 0 945 0 1080 0C1123.61 0 1164.4 -32.3 1167.23 0C1176.22 102.7 1088.23 139.98 1103.63 270C1120.21 409.98 1238.85 433.19 1231.2 540C1227.03 598.19 1148.13 600 1080 600C1046.99 600 1036.81 577.21 1028.92 540C1001.81 412.21 1061.16 387.97 1010 270C951.7 135.58 926.7 54.37 810 35.22C691.7 15.8 647.53 203.32 540 192.86" stroke="rgba(244, 191, 150, 1)" stroke-width="2"></path><path d="M1620 123.43C1586.82 123.43 1548 41.04 1548 0C1548 -20.68 1584 0 1620 0C1648.8 0 1677.6 -18.34 1677.6 0C1677.6 43.37 1651.62 123.43 1620 123.43" stroke="rgba(244, 191, 150, 1)" stroke-width="2"></path><path d="M1751.54 270C1763.96 209.68 1823.24 240.26 1890 201.65C2027.47 122.14 2082.55 14.14 2160 33.75C2217.55 48.32 2160 151.88 2160 270C2160 405 2160 405 2160 540C2160 565.32 2175.72 572 2160 590.63C2061.76 707 2046.8 701.15 1932.08 810C1911.8 829.24 1911.41 846.82 1890 846.82C1867.55 846.82 1850.57 837.28 1844.37 810C1815.73 683.87 1843.21 673.14 1820.32 540C1796.79 403.14 1729.12 378.85 1751.54 270" stroke="rgba(244, 191, 150, 1)" stroke-width="2"></path><path d="M220.34 810C220.34 776.76 234.21 752.06 270 749.15C394.04 739.05 408.94 757.51 540 783.98C559.59 787.94 571.3 795.85 571.3 810C571.3 826.28 561.73 837.59 540 844.84C411.08 887.83 383.89 922.88 270 910.47C224.06 905.46 220.34 857.42 220.34 810" stroke="rgba(244, 191, 150, 1)" stroke-width="2"></path><path d="M1325 810C1325 770.73 1338.41 725.63 1350 725.63C1361.45 725.63 1371.09 770.05 1371.09 810C1371.09 825.74 1361.11 837 1350 837C1338.07 837 1325 826.42 1325 810" stroke="rgba(244, 191, 150, 1)" stroke-width="2"></path><path d="M775.16 1080C775.16 1071.03 787.58 1053.11 810 1048.7C940 1023.11 953.77 1008.17 1080 1020C1120.81 1023.82 1144.07 1062.66 1144.07 1080C1144.07 1092.66 1112.03 1080 1080 1080C945 1080 945 1080 810 1080C792.58 1080 775.16 1086.68 775.16 1080" stroke="rgba(244, 191, 150, 1)" stroke-width="2"></path><path d="M1583.65 1080C1583.65 1071.98 1603.49 1051.36 1620 1051.36C1633.05 1051.36 1642.77 1071.17 1642.77 1080C1642.77 1085.49 1631.39 1080 1620 1080C1601.82 1080 1583.65 1086.3 1583.65 1080" stroke="rgba(244, 191, 150, 1)" stroke-width="2"></path></g><defs><mask id="SvgjsMask1026"><rect width="1920" height="1080" fill="#ffffff"></rect></mask></defs></svg>