<svg xmlns="http://www.w3.org/2000/svg" version="1.1" xmlns:xlink="http://www.w3.org/1999/xlink" xmlns:svgjs="http://svgjs.dev/svgjs" width="1920" height="1080" preserveAspectRatio="none" viewBox="0 0 1920 1080"><g mask="url(&quot;#SvgjsMask1028&quot;)" fill="none"><path d="M -408.99587403832834,759 C -332.2,683.6 -178.6,402.8 -24.99587403832834,382 C 128.6,361.2 205.4,655 359.00412596167166,655 C 512.6,655 589.4,380.4 743.0041259616717,382 C 896.6,383.6 973.4,675 1127.0041259616717,663 C 1280.6,651 1357.4,297.6 1511.0041259616717,322 C 1664.6,346.4 1813.2,793 1895.0041259616717,785 C 1976.8,777 1915,382.6 1920,282" stroke="rgba(1, 31, 63, 0.58)" stroke-width="2"></path><path d="M -309.39875205280805,701 C -232.6,619.6 -79,309.4 74.60124794719192,294 C 228.2,278.6 305,602 458.60124794719195,624 C 612.2,646 689,384.4 842.601247947192,404 C 996.2,423.6 1073,701 1226.601247947192,722 C 1380.2,743 1457,503.6 1610.601247947192,509 C 1764.2,514.4 1932.72,763.8 1994.601247947192,749 C 2056.48,734.2 1934.92,497.8 1920,435" stroke="rgba(1, 31, 63, 0.58)" stroke-width="2"></path><path d="M -166.34147047896622,308 C -89.54,407.4 64.06,773.8 217.65852952103378,805 C 371.26,836.2 448.06,503.4 601.6585295210338,464 C 755.26,424.6 832.06,639 985.6585295210338,608 C 1139.26,577 1216.06,264.8 1369.6585295210339,309 C 1523.26,353.2 1600.06,796 1753.6585295210339,829 C 1907.26,862 2104.39,477.6 2137.658529521034,474 C 2170.93,470.4 1963.53,743.6 1920,811" stroke="rgba(1, 31, 63, 0.58)" stroke-width="2"></path><path d="M -216.7011335006093,751 C -139.9,668 13.7,322.2 167.2988664993907,336 C 320.9,349.8 397.7,784.2 551.2988664993907,820 C 704.9,855.8 781.7,543.6 935.2988664993907,515 C 1088.9,486.4 1165.7,702.2 1319.2988664993907,677 C 1472.9,651.8 1549.7,409.8 1703.2988664993907,389 C 1856.9,368.2 2043.96,558.2 2087.298866499391,573 C 2130.64,587.8 1953.46,485 1920,463" stroke="rgba(1, 31, 63, 0.58)" stroke-width="2"></path><path d="M -316.925381653458,480 C -240.13,543.4 -86.53,793.6 67.07461834654202,797 C 220.67,800.4 297.47,535.4 451.074618346542,497 C 604.67,458.6 681.47,635.4 835.074618346542,605 C 988.67,574.6 1065.47,333.8 1219.0746183465421,345 C 1372.67,356.2 1449.47,671.6 1603.0746183465421,661 C 1756.67,650.4 1923.69,307.8 1987.0746183465421,292 C 2050.46,276.2 1933.41,524 1920,582" stroke="rgba(1, 31, 63, 0.58)" stroke-width="2"></path><path d="M -288.4637248392122,769 C -211.66,707 -58.06,452.6 95.5362751607878,459 C 249.14,465.4 325.94,787.8 479.5362751607878,801 C 633.14,814.2 709.94,536 863.5362751607878,525 C 1017.14,514 1093.94,757.4 1247.5362751607877,746 C 1401.14,734.6 1477.94,501.8 1631.5362751607877,468 C 1785.14,434.2 1957.84,586.6 2015.5362751607877,577 C 2073.23,567.4 1939.11,451.4 1920,420" stroke="rgba(1, 31, 63, 0.58)" stroke-width="2"></path><path d="M -603.0865279298482,605 C -526.29,566.6 -372.69,405.4 -219.08652792984827,413 C -65.49,420.6 11.31,672 164.91347207015173,643 C 318.51,614 395.31,256.6 548.9134720701518,268 C 702.51,279.4 779.31,679.8 932.9134720701518,700 C 1086.51,720.2 1163.31,390.6 1316.9134720701518,369 C 1470.51,347.4 1580.3,604 1700.9134720701518,592 C 1821.53,580 1876.18,365.6 1920,309" stroke="rgba(1, 31, 63, 0.58)" stroke-width="2"></path></g><defs><mask id="SvgjsMask1028"><rect width="1920" height="1080" fill="#ffffff"></rect></mask></defs></svg>